<?xml version="1.0" encoding="UTF-8" standalone="no"?><!DOCTYPE svg PUBLIC "-//W3C//DTD SVG 1.1//EN" "http://www.w3.org/Graphics/SVG/1.1/DTD/svg11.dtd"><svg width="100%" height="100%" viewBox="0 0 56 72" version="1.1" xmlns="http://www.w3.org/2000/svg" xmlns:xlink="http://www.w3.org/1999/xlink" xml:space="preserve" xmlns:serif="http://www.serif.com/" style="fill-rule:evenodd;clip-rule:evenodd;stroke-linecap:round;stroke-linejoin:round;stroke-miterlimit:1.5;"><g id="beer"><rect x="0" y="0" width="56" height="72" style="fill:#fff;fill-opacity:0;"/><g><rect x="42.954" y="40.094" width="8.916" height="19.462" style="fill:none;stroke:#000;stroke-width:4.2px;"/><rect x="13.046" y="34.092" width="29.909" height="35.38" style="fill:#f2af0d;stroke:#000;stroke-width:4.2px;"/><path d="M20.354,59.556l-0,-17.635l-0,17.635Zm15.292,-0l0,-17.635l0,17.635Zm-7.565,-0l0,-17.635l0,17.635Z" style="fill:#fff;stroke:#000;stroke-width:4.2px;"/><path d="M16.172,23.938c-3.44,-10.339 10.207,-15.115 15.126,-5.459c3.559,-3.951 11.723,-2.833 10.845,4.044c8.229,0.049 8.474,10.829 0.811,11.569l-29.908,0c-7.392,-0.789 -5.8,-13.763 3.126,-10.154Z" style="fill:#fff;stroke:#000;stroke-width:4.2px;"/></g></g></svg>